<svg width="24" height="24" viewBox="0 0 24 24" fill="none" xmlns="http://www.w3.org/2000/svg">
<rect width="24" height="24" rx="12" fill="url(#paint0_linear_4637_12172)"/>
<path fill-rule="evenodd" clip-rule="evenodd" d="M5.43299 11.8733C8.93124 10.3492 11.2639 9.3444 12.4311 8.85893C15.7637 7.47282 16.4561 7.23203 16.9075 7.22408C17.0067 7.22234 17.2287 7.24694 17.3725 7.3636C17.4939 7.46211 17.5273 7.59518 17.5433 7.68857C17.5592 7.78197 17.5791 7.99473 17.5633 8.16097C17.3827 10.0585 16.6013 14.6631 16.2038 16.7884C16.0356 17.6876 15.7043 17.9891 15.3837 18.0186C14.6868 18.0828 14.1577 17.5581 13.4827 17.1157C12.4266 16.4233 11.8299 15.9924 10.8047 15.3168C9.61994 14.536 10.388 14.1069 11.0632 13.4056C11.2399 13.2221 14.3103 10.4294 14.3697 10.176C14.3771 10.1443 14.384 10.0262 14.3139 9.96385C14.2437 9.90148 14.1401 9.92281 14.0654 9.93977C13.9595 9.96381 12.2723 11.079 9.00374 13.2853C8.52483 13.6142 8.09104 13.7744 7.70239 13.766C7.27393 13.7568 6.44974 13.5238 5.83704 13.3246C5.08554 13.0803 4.48826 12.9512 4.54027 12.5363C4.56736 12.3202 4.86493 12.0992 5.43299 11.8733Z" fill="white"/>
<defs>
<linearGradient id="paint0_linear_4637_12172" x1="12" y1="0" x2="12" y2="23.822" gradientUnits="userSpaceOnUse">
<stop stop-color="#2AABEE"/>
<stop offset="1" stop-color="#229ED9"/>
</linearGradient>
</defs>
</svg>
