<svg width="24" height="24" viewBox="0 0 24 24" fill="none" xmlns="http://www.w3.org/2000/svg">
<path d="M21.0566 7.18078C21.0659 7.39198 21.0659 7.59358 21.0659 7.80478C21.0752 14.208 16.3707 21.6 7.76744 21.6C5.22999 21.6 2.73885 20.8416 0.599609 19.4208C0.97004 19.4688 1.34047 19.488 1.7109 19.488C3.81309 19.488 5.85972 18.7584 7.5174 17.4048C5.51707 17.3664 3.75753 16.0128 3.14632 14.0352C3.85014 14.1792 4.57248 14.1504 5.25777 13.9488C3.08149 13.5072 1.51642 11.52 1.50716 9.20639C1.50716 9.18719 1.50716 9.16799 1.50716 9.14879C2.15542 9.52319 2.88702 9.73439 3.62788 9.75359C1.58125 8.33278 0.942258 5.50077 2.1832 3.28317C4.56322 6.31678 8.06378 8.15038 11.8237 8.35198C11.444 6.67198 11.9626 4.90557 13.1757 3.71517C15.0557 1.88156 18.0191 1.97756 19.7972 3.92637C20.8436 3.71517 21.8531 3.31197 22.7699 2.74556C22.418 3.86877 21.6864 4.81917 20.714 5.42397C21.6401 5.30877 22.5476 5.04957 23.3996 4.66557C22.7699 5.64477 21.9734 6.48958 21.0566 7.18078Z" fill="#1D9BF0"/>
</svg>
